<svg width="48" height="48" viewBox="0 0 48 48" fill="currentColor" xmlns="http://www.w3.org/2000/svg">
<path fill-rule="evenodd" clip-rule="evenodd" d="M23.26 9C17.11 9.09 11.83 10.26 9.2 11.88C7.72 12.79 7 13.9 7 14.99C7 15.28 7.05 15.57 7.15 15.86L7.41 17.15C6.56 17.53 4 18.99 4 22.99C4 26.19 6.29 28.36 9.14 29.73C9.42 29.87 9.71 29.99 10 30.11L12.01 40.18C12.04 40.31 12.09 40.43 12.16 40.54C12.16 40.54 14.26 43.99 23.99 43.99C33.72 43.99 35.82 40.54 35.82 40.54C35.89 40.43 35.94 40.31 35.97 40.18L37.98 30.11C38.27 29.99 38.56 29.86 38.84 29.73C41.69 28.36 43.98 26.19 43.98 22.99C43.98 18.99 41.42 17.52 40.57 17.15L40.83 15.86C40.93 15.57 40.98 15.28 40.98 14.99C40.98 14.17 40.59 13.35 39.78 12.62C38.95 11.87 37.61 11.17 35.89 10.6C35.99 10.38 36.08 10.15 36.15 9.92C36.54 8.67 36.51 7.37 35.87 6.24C35.22 5.11 34.13 4.43 32.85 4.14C31.12 3.76 29.07 4.14 27.63 4.98C25.57 6.18001 24.18 7.62 23.24 9H23.26ZM34.44 37.71C32.47 38.65 28.79 40 24 40C19.21 40 15.54 38.65 13.56 37.71C13.79 38.86 13.93 39.56 13.93 39.56C14.41 40.05 16.77 42 24 42C31.23 42 33.59 40.05 34.07 39.56L34.44 37.72V37.71ZM35.8 30.89C33.87 31.46 32.05 31.75 31 31.89V32.99C31 33.54 30.55 33.99 30 33.99H18C17.45 33.99 17 33.54 17 32.99V31.89C15.95 31.75 14.13 31.46 12.2 30.89L12.36 31.72L13.05 35.16C13.05 35.16 17.34 37.99 24 37.99C30.66 37.99 34.95 35.16 34.95 35.16L35.8 30.89ZM19 29.99V31.99H29V29.99H19ZM38.3 18.39C35.42 19.93 30.09 20.99 24 20.99C17.91 20.99 12.58 19.92 9.7 18.39C10.24 21.1 11.02 24.96 11.75 28.65C13.77 29.36 15.8 29.71 17 29.88V29C17 28.45 17.45 28 18 28H30C30.55 28 31 28.45 31 29V29.88C32.2 29.72 34.23 29.36 36.25 28.65L38.3 18.39ZM40.17 19.21L38.48 27.69C40.41 26.67 42 25.21 42 23C42 20.79 40.86 19.66 40.18 19.21H40.17ZM7.82 19.21C7.14 19.66 6 20.75 6 23C6 25.25 7.59 26.67 9.52 27.69L7.83 19.21H7.82ZM34.81 12.36C34.23 13.06 33.55 13.66 32.85 14.07C28.52 16.6 24.78 16.03 22.99 15.5C22.77 16.26 22.46 17.28 22.14 18.08C22.01 18.41 21.87 18.7 21.73 18.95C22.47 18.98 23.23 19 24 19C29.14 19 33.7 18.24 36.52 17.03C37.36 16.67 38.04 16.28 38.5 15.85C38.68 15.68 38.82 15.52 38.91 15.35L39 14.92C38.96 14.51 38.59 14.17 38.08 13.8C37.3 13.25 36.19 12.77 34.82 12.35L34.81 12.36ZM22.14 11.03C17.71 11.19 13.85 11.93 11.38 13.01C10.57 13.36 9.92 13.75 9.48 14.17C9.22 14.41 9.04 14.65 9.01 14.92L9.1 15.34C9.19 15.51 9.33 15.68 9.51 15.84C9.97 16.27 10.65 16.66 11.49 17.02C13.12 17.71 15.32 18.26 17.88 18.6C17.48 18.16 17.14 17.69 16.92 17.32C16.48 16.55 15.98 15.1 16.01 14.13C16.04 13.38 16.35 12.83 16.84 12.54C17 12.45 17.22 12.37 17.5 12.33C17.84 12.29 18.33 12.31 18.89 12.38C19.74 12.49 20.76 12.73 21.52 12.92C21.64 12.4 21.84 11.75 22.15 11.02L22.14 11.03ZM18.02 14.32C18.2 14.32 18.42 14.34 18.61 14.36C19.41 14.47 20.38 14.69 21.09 14.87C20.89 15.58 20.6 16.55 20.29 17.32C20.22 17.5 20.11 17.71 20.03 17.87C19.93 17.8 19.8 17.72 19.72 17.64C19.29 17.25 18.88 16.72 18.66 16.33C18.44 15.94 18.19 15.31 18.07 14.74C18.05 14.62 18.03 14.46 18.03 14.32H18.02ZM26.31 8.49C24.34 10.41 23.66 12.48 23.43 13.53C24.44 13.85 26.54 14.28 29.15 13.53C28.39 13.07 27.61 12.4 27.06 11.43C26.5 10.45 26.32 9.41 26.32 8.5L26.31 8.49ZM31.68 12.43C31.74 12.4 31.79 12.37 31.84 12.34C32.88 11.73 33.87 10.56 34.26 9.32C34.48 8.61 34.51 7.87001 34.15 7.23001C33.79 6.60001 33.15 6.25001 32.44 6.1C31.19 5.82 29.71 6.10001 28.67 6.71001C28.63 6.73001 28.6 6.75001 28.56 6.77C28.39 7.3 27.95 8.96 28.79 10.43C29.57 11.8 31.06 12.28 31.68 12.43ZM30.44 6.90001C30.92 6.62001 31.53 6.79 31.81 7.27C32.09 7.75001 31.92 8.36 31.44 8.64001C30.96 8.92001 30.35 8.75001 30.07 8.27001C29.79 7.79001 29.96 7.18001 30.44 6.90001Z"/>
</svg>
