<svg width="48" height="48" viewBox="0 0 48 48" fill="currentColor" xmlns="http://www.w3.org/2000/svg">
<path fill-rule="evenodd" clip-rule="evenodd" d="M32 44C33.08 44 34.2 43.74 35.3 43.47C36.24 43.24 37.16 43 38 43C38.75 43 39.48 43.24 40.21 43.46C41.13 43.74 42.05 44 43 44C43.55 44 44 43.55 44 43C44 42.45 43.55 42 43 42C42.25 42 41.52 41.76 40.79 41.54C39.87 41.26 38.95 41 38 41C37.05 41 35.93 41.26 34.82 41.53C33.88 41.76 32.92 42 32 42C31.45 42 31 42.45 31 43C31 43.55 31.45 44 32 44ZM16 42C15.08 42 14.12 41.76 13.18 41.53C12.08 41.26 10.99 41 9.99999 41C9.00999 41 8.12999 41.26 7.20999 41.54C6.47999 41.76 5.74999 42 4.99999 42C4.44999 42 3.99999 42.45 3.99999 43C3.99999 43.55 4.44999 44 4.99999 44C5.94999 44 6.86999 43.74 7.78999 43.46C8.51999 43.24 9.24999 43 9.99999 43C10.84 43 11.76 43.24 12.7 43.47C13.8 43.74 14.92 44 16 44C16.55 44 17 43.55 17 43C17 42.45 16.55 42 16 42ZM14.37 28.79C13.92 28.91 13.47 29 13 29C12.32 29 11.6 28.76 10.86 28.54C9.91999 28.26 8.95999 28 7.99999 28C6.85999 28 4.54999 29.11 4.54999 29.11C4.05999 29.36 3.85999 29.96 4.09999 30.45C4.34999 30.94 4.94999 31.14 5.43999 30.9C5.43999 30.9 7.13999 30.01 7.98999 30.01C8.75999 30.01 9.52999 30.25 10.28 30.47C11.22 30.75 12.14 31.01 12.99 31.01C13.84 31.01 14.72 30.78 15.57 30.53C16.94 32.3 18.42 33.69 19.74 34.71C19.13 34.59 18.55 34.51 17.99 34.51C17.04 34.51 16.12 34.77 15.2 35.05C14.47 35.27 13.74 35.51 12.99 35.51C12.44 35.51 11.99 35.96 11.99 36.51C11.99 37.06 12.44 37.51 12.99 37.51C13.94 37.51 14.86 37.25 15.78 36.97C16.51 36.75 17.24 36.51 17.99 36.51C18.83 36.51 19.75 36.75 20.69 36.98C21.79 37.25 22.91 37.51 23.99 37.51C25.07 37.51 26.19 37.25 27.29 36.98C28.23 36.75 29.15 36.51 29.99 36.51C30.74 36.51 31.47 36.75 32.2 36.97C33.12 37.25 34.04 37.51 34.99 37.51C35.54 37.51 35.99 37.06 35.99 36.51C35.99 35.96 35.54 35.51 34.99 35.51C34.24 35.51 33.51 35.27 32.78 35.05C31.86 34.77 30.94 34.51 29.99 34.51C29.43 34.51 28.84 34.59 28.24 34.71C29.56 33.69 31.05 32.3 32.41 30.53C33.26 30.78 34.11 31.01 34.99 31.01C35.87 31.01 36.76 30.75 37.7 30.47C38.45 30.25 39.22 30.01 39.99 30.01C40.85 30.01 42.54 30.9 42.54 30.9C43.03 31.15 43.64 30.95 43.88 30.45C44.13 29.96 43.93 29.35 43.43 29.11C43.43 29.11 41.13 28 39.98 28C39.03 28 38.06 28.26 37.12 28.54C36.37 28.76 35.65 29 34.98 29C34.52 29 34.06 28.91 33.61 28.79C35.53 25.76 36.98 21.85 36.98 17C36.98 9.83 31.15 4 23.98 4C16.81 4 10.98 9.83 10.98 17C10.98 21.85 12.43 25.76 14.35 28.79H14.37ZM24 34.96C23.66 34.8 22.56 34.28 21.55 33.55C18.14 31.1 13 25.71 13 17C13 10.93 17.93 6 24 6C30.07 6 35 10.93 35 17C35 25.71 29.86 31.1 26.45 33.55C25.44 34.28 24.34 34.81 24 34.96ZM24 7C18.48 7 14 11.48 14 17C14 22.52 18.48 27 24 27C29.52 27 34 22.52 34 17C34 11.48 29.52 7 24 7ZM24 9C28.42 9 32 12.58 32 17C32 21.42 28.42 25 24 25C19.58 25 16 21.42 16 17C16 12.58 19.58 9 24 9ZM21.68 15.45C21.31 15.16 20.87 14.84 20.48 14.59C19.88 14.2 19.31 14 19 14C18.5 14 18.04 14.24 17.69 14.7C17.24 15.29 17 16.36 17 17C17 17.64 17.25 18.71 17.69 19.3C18.04 19.76 18.5 20 19 20C19.31 20 19.88 19.8 20.48 19.41C20.87 19.16 21.31 18.84 21.68 18.55C22.38 19.62 23.73 21 26 21C29.84 21 31 18.28 31 17C31 15.72 29.84 13 26 13C23.73 13 22.39 14.38 21.68 15.45ZM25.45 15.04C24.05 15.29 23.35 16.43 23.08 16.99C23.35 17.56 24.07 18.72 25.49 18.95C25.17 18.29 25.01 17.64 25 17.01C24.99 16.34 25.14 15.68 25.45 15.04ZM27.63 15.3C27.22 15.84 26.99 16.39 27 16.97C27.01 17.52 27.23 18.09 27.64 18.67C28.6 18.24 29 17.48 29 16.98C29 16.48 28.6 15.71 27.63 15.29V15.3ZM19.18 16.19L20.29 16.99L19.18 17.79C19.1 17.53 18.99 17.17 18.99 16.99C18.99 16.81 19.09 16.45 19.18 16.19Z"/>
</svg>
