<svg width="48" height="48" viewBox="0 0 48 48" fill="currentColor" xmlns="http://www.w3.org/2000/svg">
<path fill-rule="evenodd" clip-rule="evenodd" d="M4.98999 44C5.64999 44 6.35999 43.72 7.02999 43.41C7.42999 43.23 7.80999 43 8.16999 43C8.29999 43 8.40999 43.06 8.53999 43.12C8.78999 43.24 9.02999 43.39 9.27999 43.53C9.78999 43.81 10.3 44.01 10.82 44.01C11.34 44.01 11.9 43.83 12.46 43.57C12.97 43.34 13.49 43.01 14 43.01C14.55 43.01 15 42.56 15 42.01C15 41.46 14.55 41.01 14 41.01C13.34 41.01 12.63 41.29 11.96 41.6C11.56 41.78 11.18 42.01 10.82 42.01C10.69 42.01 10.57 41.95 10.45 41.89C10.2 41.77 9.95999 41.62 9.70999 41.48C9.20999 41.2 8.68999 41 8.16999 41C7.64999 41 7.08999 41.18 6.52999 41.44C6.01999 41.67 5.49999 42 4.98999 42C4.43999 42 3.98999 42.45 3.98999 43C3.98999 43.55 4.43999 44 4.98999 44ZM33.99 44C34.65 44 35.36 43.72 36.03 43.41C36.43 43.23 36.81 43 37.17 43C37.3 43 37.41 43.06 37.54 43.12C37.79 43.24 38.03 43.39 38.28 43.53C38.79 43.81 39.3 44.01 39.82 44.01C40.34 44.01 40.9 43.83 41.46 43.57C41.97 43.34 42.49 43.01 43 43.01C43.55 43.01 44 42.56 44 42.01C44 41.46 43.55 41.01 43 41.01C42.34 41.01 41.63 41.29 40.96 41.6C40.56 41.78 40.18 42.01 39.82 42.01C39.69 42.01 39.57 41.95 39.45 41.89C39.2 41.77 38.96 41.62 38.71 41.48C38.21 41.2 37.69 41 37.17 41C36.65 41 36.09 41.18 35.53 41.44C35.02 41.67 34.5 42 33.99 42C33.44 42 32.99 42.45 32.99 43C32.99 43.55 33.44 44 33.99 44ZM26 41C26.55 41 27 41.45 27 42C27 42.55 26.55 43 26 43C25.45 43 25 42.55 25 42C25 41.45 25.45 41 26 41ZM39 9.09C38.38 9.19 37.75 9.36 37.14 9.55C36.39 9.77 35.67 10.01 35 10.01C34.25 10.01 33.52 9.77 32.79 9.55C31.87 9.27 30.95 9.01 30 9.01C29.05 9.01 27.93 9.27 26.82 9.54C25.88 9.77 24.92 10.01 24 10.01C23.08 10.01 22.12 9.77 21.18 9.54C20.08 9.27 18.99 9.01 18 9.01C17.01 9.01 16.13 9.27 15.21 9.55C14.48 9.77 13.75 10.01 13 10.01C12.32 10.01 11.6 9.77 10.86 9.55C10.25 9.37 9.62999 9.19 8.99999 9.09V5C8.99999 4.45 8.54999 4 7.99999 4C7.44999 4 6.99999 4.45 6.99999 5V9.17C5.85999 9.48 4.54999 10.11 4.54999 10.11C4.05999 10.36 3.85999 10.96 4.09999 11.45C4.34999 11.94 4.94999 12.14 5.43999 11.9C5.43999 11.9 6.21999 11.49 6.98999 11.22V32.99C6.98999 36.31 9.67999 39 13 39H34.98C38.3 39 40.99 36.31 40.99 32.99V11.22C41.76 11.48 42.54 11.9 42.54 11.9C43.03 12.15 43.64 11.95 43.88 11.45C44.13 10.96 43.93 10.35 43.43 10.11C43.43 10.11 42.12 9.48 40.98 9.17V5C40.98 4.45 40.53 4 39.98 4C39.43 4 38.98 4.45 38.98 5V9.09H39ZM5.00999 36C5.55999 36 6.00999 36.45 6.00999 37C6.00999 37.55 5.55999 38 5.00999 38C4.45999 38 4.00999 37.55 4.00999 37C4.00999 36.45 4.45999 36 5.00999 36ZM43.01 36C43.56 36 44.01 36.45 44.01 37C44.01 37.55 43.56 38 43.01 38C42.46 38 42.01 37.55 42.01 37C42.01 36.45 42.46 36 43.01 36ZM39.01 11.11C38.58 11.2 38.15 11.33 37.72 11.45C36.78 11.73 35.86 11.99 35.01 11.99C34.06 11.99 33.14 11.73 32.22 11.45C31.49 11.23 30.76 10.99 30.01 10.99C29.17 10.99 28.25 11.23 27.31 11.46C26.21 11.73 25.09 11.99 24.01 11.99C22.93 11.99 21.81 11.73 20.71 11.46C19.77 11.23 18.85 10.99 18.01 10.99C17.26 10.99 16.53 11.23 15.8 11.45C14.88 11.73 13.96 11.99 13.01 11.99C12.16 11.99 11.24 11.73 10.3 11.45C9.87999 11.33 9.44999 11.19 9.00999 11.11V32.99C9.00999 35.2 10.81 37 13.02 37H35C37.21 37 39.01 35.2 39.01 32.99V11.11ZM20.15 33.4C20.56 33.73 21.07 34.11 21.53 34.41C22.13 34.8 22.7 35 23.01 35C23.51 35 23.97 34.76 24.32 34.3C24.77 33.71 25.01 32.64 25.01 32C25.01 31.36 24.76 30.29 24.32 29.7C23.97 29.24 23.51 29 23.01 29C22.7 29 22.13 29.2 21.53 29.59C21.07 29.88 20.56 30.27 20.15 30.6C19.21 29.58 17.37 28 15.01 28C11.17 28 10.01 30.72 10.01 32C10.01 33.28 11.17 36 15.01 36C17.37 36 19.2 34.42 20.15 33.4ZM35.01 33C35.56 33 36.01 33.45 36.01 34C36.01 34.55 35.56 35 35.01 35C34.46 35 34.01 34.55 34.01 34C34.01 33.45 34.46 33 35.01 33ZM15.56 30.04C15.88 30.69 16.03 31.35 16.01 32.02C16 32.65 15.84 33.3 15.52 33.97C17.03 33.76 18.17 32.68 18.75 32C18.17 31.33 17.04 30.26 15.56 30.04ZM13.38 30.31C12.42 30.73 12.01 31.5 12.01 32C12.01 32.5 12.41 33.26 13.37 33.69C13.78 33.1 14 32.54 14.01 31.99C14.02 31.41 13.79 30.86 13.38 30.32V30.31ZM21.72 32L22.83 31.2C22.91 31.46 23.02 31.82 23.02 32C23.02 32.18 22.92 32.54 22.83 32.8L21.72 32ZM27.88 23.6C27.47 23.27 26.96 22.89 26.5 22.59C25.9 22.2 25.33 22 25.02 22C24.52 22 24.06 22.24 23.71 22.7C23.26 23.29 23.02 24.36 23.02 25C23.02 25.64 23.27 26.71 23.71 27.3C24.06 27.76 24.52 28 25.02 28C25.33 28 25.9 27.8 26.5 27.41C26.96 27.12 27.47 26.73 27.88 26.4C28.82 27.42 30.66 29 33.02 29C36.86 29 38.02 26.28 38.02 25C38.02 23.72 36.86 21 33.02 21C30.66 21 28.83 22.58 27.88 23.6ZM32.47 23.04C30.98 23.26 29.85 24.33 29.28 25C29.86 25.68 31 26.76 32.51 26.97C32.19 26.3 32.03 25.65 32.02 25.02C32.01 24.35 32.16 23.69 32.47 23.04ZM34.65 23.31C34.24 23.85 34.01 24.4 34.02 24.98C34.02 25.53 34.25 26.1 34.66 26.68C35.62 26.25 36.02 25.49 36.02 24.99C36.02 24.49 35.62 23.72 34.65 23.3V23.31ZM17.02 24C17.57 24 18.02 24.45 18.02 25C18.02 25.55 17.57 26 17.02 26C16.47 26 16.02 25.55 16.02 25C16.02 24.45 16.47 24 17.02 24ZM25.21 24.2L26.32 25L25.21 25.8C25.13 25.54 25.02 25.18 25.02 25C25.02 24.82 25.12 24.46 25.21 24.2ZM20.16 19.4C20.57 19.73 21.08 20.11 21.54 20.41C22.14 20.8 22.71 21 23.02 21C23.52 21 23.98 20.76 24.33 20.3C24.78 19.71 25.02 18.64 25.02 18C25.02 17.36 24.77 16.29 24.33 15.7C23.98 15.24 23.52 15 23.02 15C22.71 15 22.14 15.2 21.54 15.59C21.08 15.88 20.57 16.27 20.16 16.6C19.22 15.58 17.38 14 15.02 14C11.18 14 10.02 16.72 10.02 18C10.02 19.28 11.18 22 15.02 22C17.38 22 19.21 20.42 20.16 19.4ZM15.57 16.04C15.89 16.69 16.04 17.35 16.02 18.02C16.01 18.65 15.85 19.3 15.53 19.97C17.04 19.76 18.18 18.68 18.76 18C18.18 17.33 17.05 16.26 15.57 16.04ZM13.39 16.31C12.43 16.73 12.02 17.5 12.02 18C12.02 18.5 12.42 19.26 13.38 19.69C13.79 19.1 14.01 18.54 14.02 17.99C14.03 17.41 13.8 16.86 13.39 16.32V16.31ZM21.73 18L22.84 17.2C22.92 17.46 23.03 17.82 23.03 18C23.03 18.18 22.93 18.54 22.84 18.8L21.73 18ZM33.02 15C33.57 15 34.02 15.45 34.02 16C34.02 16.55 33.57 17 33.02 17C32.47 17 32.02 16.55 32.02 16C32.02 15.45 32.47 15 33.02 15Z"/>
</svg>
