<svg width="48" height="48" viewBox="0 0 48 48" fill="currentColor" xmlns="http://www.w3.org/2000/svg">
<path fill-rule="evenodd" clip-rule="evenodd" d="M22 36C22 37.66 23.34 39 25 39H30C30.82 39 31.92 38.49 33.06 37.62C35.29 35.91 37.86 32.87 38.82 31.48C38.91 31.35 39.06 31.28 39.21 31.28H39.33C39.57 31.32 39.78 31.46 39.9 31.68C40.04 31.93 40.03 32.24 39.88 32.49C38.71 34.41 35.25 38.69 33.42 40.93C32.87 41.61 32.04 42 31.17 42C25.25 42 7 42 7 42C6.45 42 6 42.45 6 43C6 43.55 6.45 44 7 44H31.17C32.65 44 34.05 43.33 34.97 42.18C36.85 39.89 40.39 35.49 41.59 33.52C42.11 32.66 42.14 31.58 41.65 30.7C41.16 29.81 40.23 29.26 39.22 29.26C39.14 29.26 39.06 29.26 38.98 29.29C38.27 29.36 37.62 29.73 37.2 30.32V30.33C36.32 31.61 33.94 34.44 31.86 36.03C31.15 36.57 30.52 37 30.01 37H25.01C24.46 37 24.01 36.55 24.01 36C24.01 35.45 24.46 35 25.01 35H27.01C28.67 35 30.01 33.66 30.01 32C30.01 31.2 29.69 30.44 29.13 29.88C28.57 29.32 27.8 29 27.01 29H20.06C18.47 29 16.95 29.71 15.93 30.93L12.54 35H7.01C6.46 35 6.01 35.45 6.01 36C6.01 36.55 6.46 37 7.01 37H13.01C13.31 37 13.59 36.87 13.78 36.64C13.78 36.64 15.99 33.99 17.47 32.21C18.11 31.44 19.06 31 20.06 31H27.01C27.28 31 27.53 31.11 27.72 31.29C27.91 31.48 28.01 31.73 28.01 32C28.01 32.55 27.56 33 27.01 33H25.01C23.35 33 22.01 34.34 22.01 36H22ZM23.83 21.56C23.18 21.04 22.26 20.33 21.46 19.81C20.66 19.3 19.91 19 19.51 19C18.91 19 18.37 19.3 17.95 19.86C17.34 20.67 17.01 22.13 17.01 23C17.01 23.87 17.34 25.34 17.95 26.14C18.37 26.7 18.91 27 19.51 27C19.92 27 20.66 26.71 21.46 26.19C22.27 25.67 23.19 24.96 23.83 24.44C25.14 26 28.38 29 34 29C35.8 29 37.93 28.17 39.34 26.76C40.35 25.76 41 24.47 41 23C41 21.53 40.35 20.24 39.34 19.24C37.93 17.83 35.8 17 34 17C28.37 17 25.13 19.99 23.83 21.56ZM33.45 26.99C33.63 26.99 33.82 27 34 27C35.11 27 36.38 26.57 37.38 25.82C38.3 25.13 39 24.17 39 23C39 21.83 38.3 20.86 37.38 20.18C36.38 19.44 35.11 19 34 19C33.81 19 33.63 19 33.45 19.01C32.96 19.63 32 21.08 32 23C32 24.92 32.95 26.37 33.45 26.99ZM30.86 19.4C27.77 20.22 25.96 22.09 25.23 23C25.96 23.91 27.77 25.79 30.86 26.6C30.4 25.65 30 24.42 30 23C30 21.58 30.4 20.34 30.86 19.4ZM19.56 21.05C19.74 21.14 20.1 21.31 20.37 21.49C21.06 21.93 21.84 22.53 22.43 23C21.84 23.47 21.06 24.07 20.37 24.51C20.1 24.69 19.74 24.86 19.56 24.95C19.49 24.84 19.36 24.65 19.3 24.5C19.1 24 19 23.4 19 23C19 22.6 19.1 22 19.3 21.5C19.36 21.35 19.48 21.16 19.56 21.05ZM35 20C35.55 20 36 20.45 36 21C36 21.55 35.55 22 35 22C34.45 22 34 21.55 34 21C34 20.45 34.45 20 35 20ZM23.83 8.56C23.18 8.04 22.26 7.33 21.46 6.81C20.66 6.3 19.91 6 19.51 6C18.91 6 18.37 6.3 17.95 6.86C17.34 7.67 17.01 9.13 17.01 10C17.01 10.87 17.34 12.34 17.95 13.14C18.37 13.7 18.91 14 19.51 14C19.92 14 20.66 13.71 21.46 13.19C22.27 12.67 23.19 11.96 23.83 11.44C25.14 13 28.38 16 34 16C35.8 16 37.93 15.17 39.34 13.76C40.35 12.76 41 11.47 41 10C41 8.53 40.35 7.24 39.34 6.24C37.93 4.83 35.8 4 34 4C28.37 4 25.13 6.99 23.83 8.56ZM33.45 13.99C33.63 13.99 33.82 14 34 14C35.11 14 36.38 13.57 37.38 12.82C38.3 12.13 39 11.17 39 10C39 8.83 38.3 7.86 37.38 7.18C36.38 6.44 35.11 6 34 6C33.81 6 33.63 6 33.45 6.01C32.96 6.63 32 8.08 32 10C32 11.92 32.95 13.37 33.45 13.99ZM30.86 6.4C27.77 7.22 25.96 9.09 25.23 10C25.96 10.91 27.77 12.79 30.86 13.6C30.4 12.65 30 11.42 30 10C30 8.58 30.4 7.34 30.86 6.4ZM19.56 8.05C19.74 8.14 20.1 8.31 20.37 8.49C21.06 8.93 21.84 9.53 22.43 10C21.84 10.47 21.06 11.07 20.37 11.51C20.1 11.69 19.74 11.86 19.56 11.95C19.49 11.84 19.36 11.65 19.3 11.5C19.1 11 19 10.4 19 10C19 9.6 19.1 9 19.3 8.5C19.36 8.35 19.48 8.16 19.56 8.05ZM35 7C35.55 7 36 7.45 36 8C36 8.55 35.55 9 35 9C34.45 9 34 8.55 34 8C34 7.45 34.45 7 35 7Z"/>
</svg>
